<svg xmlns="http://www.w3.org/2000/svg" width="40" height="40" viewBox="0 0 40 40" fill="none">
  <circle cx="20" cy="20" r="16" fill="#4F46E5" stroke="white" stroke-width="2"/>
  <path d="M26 15H24.59L23.7 14.11C23.53 13.95 23.28 13.85 23.03 13.85H17.97C17.72 13.85 17.47 13.95 17.3 14.11L16.41 15H15C14.45 15 14 15.45 14 16V24C14 24.55 14.45 25 15 25H26C26.55 25 27 24.55 27 24V16C27 15.45 26.55 15 26 15ZM26 24H15V16H16.83L17.83 15H23.17L24.17 16H26V24ZM20.5 17.5C19.12 17.5 18 18.62 18 20C18 21.38 19.12 22.5 20.5 22.5C21.88 22.5 23 21.38 23 20C23 18.62 21.88 17.5 20.5 17.5ZM20.5 21.5C19.67 21.5 19 20.83 19 20C19 19.17 19.67 18.5 20.5 18.5C21.33 18.5 22 19.17 22 20C22 20.83 21.33 21.5 20.5 21.5Z" fill="white"/>
</svg> 